<?xml version="1.0" encoding="UTF-8" standalone="no"?>
<svg
   viewBox="0 0 690.92 189.24"
   version="1.1"
   id="svg118"
   sodipodi:docname="logo-footer.svg"
   inkscape:version="1.2-beta (1b65182ce9, 2022-04-05)"
   xmlns:inkscape="http://www.inkscape.org/namespaces/inkscape"
   xmlns:sodipodi="http://sodipodi.sourceforge.net/DTD/sodipodi-0.dtd"
   xmlns="http://www.w3.org/2000/svg"
   xmlns:svg="http://www.w3.org/2000/svg">
  <sodipodi:namedview
     id="namedview120"
     pagecolor="#ffffff"
     bordercolor="#000000"
     borderopacity="0.25"
     inkscape:pageshadow="2"
     inkscape:pageopacity="0.0"
     inkscape:pagecheckerboard="0"
     inkscape:deskcolor="#d1d1d1"
     showgrid="false"
     inkscape:zoom="1.7903665"
     inkscape:cx="345.18072"
     inkscape:cy="94.39408"
     inkscape:window-width="1920"
     inkscape:window-height="1057"
     inkscape:window-x="-8"
     inkscape:window-y="-8"
     inkscape:window-maximized="1"
     inkscape:current-layer="svg118" />
  <defs
     id="defs88">
    <style
       id="style62">.cls-1{fill:#3c3535}.cls-2{fill:#ab2723}.cls-4{fill:#728529}.cls-6{fill:#ed7004}.cls-8{fill:#005f9f}</style>
    <linearGradient
       id="Gradiente_sem_nome_25"
       x1="65.95"
       y1="134.86"
       x2="17.69"
       y2="96.85"
       gradientUnits="userSpaceOnUse">
      <stop
         offset="0"
         stop-color="#c93f2b"
         id="stop64" />
      <stop
         offset="1"
         stop-color="#ab2723"
         id="stop66" />
    </linearGradient>
    <linearGradient
       id="Gradiente_sem_nome_5"
       x1="112.38"
       y1="35.11"
       x2="175.74"
       y2="98.47"
       gradientUnits="userSpaceOnUse">
      <stop
         offset="0"
         stop-color="#9cb71e"
         id="stop69" />
      <stop
         offset=".36"
         stop-color="#879e23"
         id="stop71" />
      <stop
         offset=".74"
         stop-color="#788c28"
         id="stop73" />
      <stop
         offset="1"
         stop-color="#728529"
         id="stop75" />
    </linearGradient>
    <linearGradient
       id="Gradiente_sem_nome_27"
       x1="76.23"
       y1="200.72"
       x2="138.62"
       y2="125.63"
       gradientUnits="userSpaceOnUse">
      <stop
         offset="0"
         stop-color="#ed7004"
         id="stop78" />
      <stop
         offset="1"
         stop-color="#f59a2d"
         id="stop80" />
    </linearGradient>
    <linearGradient
       id="Gradiente_sem_nome_23"
       x1="62.6"
       y1="55.84"
       x2="93.22"
       y2="14.25"
       gradientUnits="userSpaceOnUse">
      <stop
         offset="0"
         stop-color="#0bbbef"
         id="stop83" />
      <stop
         offset="1"
         stop-color="#005f9f"
         id="stop85" />
    </linearGradient>
  </defs>
  <g
     id="Camada_2"
     data-name="Camada 2"
     style="fill:#ffffff">
    <g
       id="Camada_1-2"
       data-name="Camada 1"
       style="fill:#ffffff">
      <path
         class="cls-1"
         d="M240.41 66.13a20.39 20.39 0 0 0 8.76 1.77 8.42 8.42 0 0 0 7.25-3.75q2.67-3.77 2.66-12.21V10.12h19.4v47.66a40.6 40.6 0 0 1-1.35 10.9 20.94 20.94 0 0 1-4.38 8.32 19.57 19.57 0 0 1-8.09 5.32 35.37 35.37 0 0 1-12.25 1.88 30.16 30.16 0 0 1-5.32-.47q-2.61-.47-6.26-1.41l-.42-.1zM352.74 55.28q0 14.4-8.55 21.64t-23.36 7.25q-14.82 0-23.37-7.25t-8.55-21.64V10.12h19.4v41.93a39 39 0 0 0 .57 7 16.56 16.56 0 0 0 2 5.59 10.19 10.19 0 0 0 3.91 3.8 12.15 12.15 0 0 0 6 1.36 12.42 12.42 0 0 0 6.1-1.36 9.93 9.93 0 0 0 3.86-3.8 17.64 17.64 0 0 0 2-5.59 39 39 0 0 0 .57-7V10.12h19.4zM363.48 10.12h24.72l24.62 49.44h.2l-.31-49.44h17.73v72.8h-24.09L380.9 33.17h-.21l.63 49.75h-17.84zM454.74 24.51H436.8V10.12h55.28v14.39h-17.94v58.41h-19.4zM504.81 18.83q9.37-10 27.11-10t27.12 10q9.39 10 9.39 27.69T559 74.16q-9.45 10-27.07 10t-27.06-10q-9.45-10-9.44-27.64t9.38-27.69zm11.57 36.55a23.36 23.36 0 0 0 3 7.41 15.28 15.28 0 0 0 5.16 5.11 14.11 14.11 0 0 0 7.4 1.88 14.43 14.43 0 0 0 7.46-1.88 14.76 14.76 0 0 0 5.16-5.11 24 24 0 0 0 2.92-7.41 40 40 0 0 0 .94-8.86 41 41 0 0 0-.94-9.07 24.11 24.11 0 0 0-2.94-7.45 14.07 14.07 0 0 0-5.16-5 15.1 15.1 0 0 0-7.46-1.77 14.76 14.76 0 0 0-7.4 1.77 14.54 14.54 0 0 0-5.16 5 23.46 23.46 0 0 0-3 7.41 41.62 41.62 0 0 0-.94 9.07 40.59 40.59 0 0 0 .96 8.9zM577.4 65a39.82 39.82 0 0 0 9.18 3.49 43.63 43.63 0 0 0 10.84 1.31 20.32 20.32 0 0 0 8.71-1.57 5.6 5.6 0 0 0 3.29-5.52 6.16 6.16 0 0 0-3.13-5.64 48.4 48.4 0 0 0-9.81-4 85.83 85.83 0 0 1-8.34-2.82 26.29 26.29 0 0 1-6.36-3.7 17.38 17.38 0 0 1-4.9-6.1 20.51 20.51 0 0 1-1.88-9.26 19.57 19.57 0 0 1 2.76-10.64 20.11 20.11 0 0 1 7.36-6.94A34.39 34.39 0 0 1 595.23 10a59 59 0 0 1 11.47-1.13 68.19 68.19 0 0 1 10.12.73 50.28 50.28 0 0 1 8.66 2l-1.25 15a38.38 38.38 0 0 0-16.17-3.34c-1.53 0-3 .07-4.43.21a17.69 17.69 0 0 0-4.12.89 7.67 7.67 0 0 0-3.23 2A5.14 5.14 0 0 0 595 30a5.16 5.16 0 0 0 2.92 4.75 46.5 46.5 0 0 0 9.29 3.38c3.33 1 6.15 1.88 8.44 2.72a26.13 26.13 0 0 1 6.68 3.65 17.23 17.23 0 0 1 5.16 6.25 20.82 20.82 0 0 1 1.93 9.39 23.27 23.27 0 0 1-2.61 11.47 19.93 19.93 0 0 1-7.09 7.46A30.56 30.56 0 0 1 609.57 83a61 61 0 0 1-12.15 1.15 80 80 0 0 1-11.16-.83A67.61 67.61 0 0 1 575.73 81zM286.51 120.52a36.68 36.68 0 0 0-14.81-3.13 16.28 16.28 0 0 0-4.07.52 11.86 11.86 0 0 0-3.65 1.67 8.65 8.65 0 0 0-2.71 3.13 10.25 10.25 0 0 0-1 4.8 6.31 6.31 0 0 0 2.92 5.53 48 48 0 0 0 9.18 4.38q4.59 1.77 7.66 3.23a26.82 26.82 0 0 1 5.9 3.86 17.89 17.89 0 0 1 4.53 6 20 20 0 0 1 1.73 8.71 22.2 22.2 0 0 1-2.14 10 18 18 0 0 1-5.9 6.88 26.41 26.41 0 0 1-8.65 3.86 43.18 43.18 0 0 1-10.64 1.25 53 53 0 0 1-8.24-.52c-2.16-.35-5.11-1-8.87-1.88l-1.56-.41 1.36-13.15a39.15 39.15 0 0 0 8.08 3.29 30.54 30.54 0 0 0 8.39 1.2 16.91 16.91 0 0 0 8.87-2.45 7.7 7.7 0 0 0 4.07-6.94 7.23 7.23 0 0 0-3.08-6.26 45.34 45.34 0 0 0-9.65-4.69q-4.38-1.77-7.4-3.23a25.79 25.79 0 0 1-5.74-3.81 17.57 17.57 0 0 1-4.38-5.84 19.39 19.39 0 0 1-1.67-8.4 22.83 22.83 0 0 1 2.05-10.12 18.56 18.56 0 0 1 5.68-6.94 24.6 24.6 0 0 1 8.09-3.91 35.63 35.63 0 0 1 9.59-1.25 54.83 54.83 0 0 1 17.42 2.61zM309.09 116.09q9.33-10.17 26.34-10.17a39.84 39.84 0 0 1 15.12 2.71 30.2 30.2 0 0 1 11.21 7.72 34.21 34.21 0 0 1 6.94 11.89 45.67 45.67 0 0 1 2.4 15.12 46.8 46.8 0 0 1-2.35 15.23 34.61 34.61 0 0 1-6.88 12 30.26 30.26 0 0 1-11.21 7.88 39.58 39.58 0 0 1-15.23 2.76q-17.12 0-26.39-10.32t-9.28-27.54q0-17.11 9.33-27.28zm7 37.08a27.32 27.32 0 0 0 3.6 8.44 18 18 0 0 0 6.36 5.95 21 21 0 0 0 18.67 0 18 18 0 0 0 6.37-5.95 27.06 27.06 0 0 0 3.59-8.44 40.93 40.93 0 0 0 1.15-9.81 38.43 38.43 0 0 0-1.2-9.65 26.7 26.7 0 0 0-3.7-8.34 18.17 18.17 0 0 0-6.42-5.84 20.52 20.52 0 0 0-18.25 0 18 18 0 0 0-6.41 5.89 27.51 27.51 0 0 0-3.71 8.35 37.72 37.72 0 0 0-1.19 9.59 41.44 41.44 0 0 0 1.18 9.81zM382.36 107.17h23.37L423 162.34h.21l17.31-55.17h23.36V180H450v-60.11h-.21L430.13 180h-14l-19.61-60.08-.21.21V180h-14zM484.52 116.09q9.33-10.17 26.34-10.17a39.84 39.84 0 0 1 15.14 2.71 30.2 30.2 0 0 1 11.21 7.72 34.21 34.21 0 0 1 6.94 11.89 45.67 45.67 0 0 1 2.4 15.12 47.06 47.06 0 0 1-2.35 15.23 34.61 34.61 0 0 1-6.88 12 30.21 30.21 0 0 1-11.22 7.88 39.53 39.53 0 0 1-15.22 2.76q-17.12 0-26.39-10.32t-9.28-27.54q-.02-17.11 9.31-27.28zm7 37.08a27.08 27.08 0 0 0 3.6 8.44 17.87 17.87 0 0 0 6.36 5.95 21 21 0 0 0 18.67 0 17.87 17.87 0 0 0 6.36-5.95 26.85 26.85 0 0 0 3.6-8.44 40.93 40.93 0 0 0 1.15-9.81 38.43 38.43 0 0 0-1.2-9.65 26.7 26.7 0 0 0-3.7-8.34 18.17 18.17 0 0 0-6.42-5.84 20.52 20.52 0 0 0-18.25 0 17.92 17.92 0 0 0-6.41 5.89 27.51 27.51 0 0 0-3.71 8.35 37.73 37.73 0 0 0-1.2 9.59 41.44 41.44 0 0 0 1.19 9.81zM596.9 120.52a36.68 36.68 0 0 0-14.81-3.13 16.28 16.28 0 0 0-4.07.52 11.86 11.86 0 0 0-3.65 1.67 8.65 8.65 0 0 0-2.71 3.13 10.25 10.25 0 0 0-1 4.8 6.31 6.31 0 0 0 2.92 5.53 48 48 0 0 0 9.18 4.38q4.59 1.77 7.66 3.23a26.82 26.82 0 0 1 5.9 3.86 17.89 17.89 0 0 1 4.53 6 20 20 0 0 1 1.73 8.71 22.2 22.2 0 0 1-2.14 10 18 18 0 0 1-5.9 6.88 26.41 26.41 0 0 1-8.65 3.86 43.18 43.18 0 0 1-10.64 1.25 53 53 0 0 1-8.24-.52c-2.16-.35-5.11-1-8.87-1.88l-1.56-.41 1.36-13.15a39.15 39.15 0 0 0 8.08 3.29 30.54 30.54 0 0 0 8.39 1.2 16.91 16.91 0 0 0 8.87-2.45 7.7 7.7 0 0 0 4.07-6.94 7.23 7.23 0 0 0-3.08-6.26 45.34 45.34 0 0 0-9.65-4.69q-4.38-1.77-7.4-3.23a25.79 25.79 0 0 1-5.74-3.81 17.57 17.57 0 0 1-4.38-5.84 19.39 19.39 0 0 1-1.67-8.4 22.83 22.83 0 0 1 2.05-10.12 18.56 18.56 0 0 1 5.68-6.94 24.6 24.6 0 0 1 8.09-3.91 35.63 35.63 0 0 1 9.59-1.25 54.83 54.83 0 0 1 17.42 2.61z"
         id="path90"
         style="fill:#ffffff" />
      <circle
         class="cls-2"
         cx="18.25"
         cy="170.05"
         r="18.25"
         id="circle92"
         style="fill:#ffffff" />
      <path
         class="cls-2"
         d="M87.63 125.93V175c0 12.47-8.95 17.77-19.88 11.76L39.5 150.61l41.63-40.52a22.61 22.61 0 0 1 6.5 15.84z"
         id="path94"
         style="fill:#ffffff" />
      <path
         d="M15.87 103.25H65a22.59 22.59 0 0 1 16.17 6.84L39.5 150.61 4.11 123.12c-6-10.93-.71-19.87 11.76-19.87z"
         fill="url(#Gradiente_sem_nome_25)"
         id="path96"
         style="fill:#ffffff" />
      <path
         class="cls-4"
         d="M156 18.49A18.26 18.26 0 1 0 174.26.23 18.25 18.25 0 0 0 156 18.49zM124.76 2.48c-10.93-6-19.87-.71-19.87 11.76v49.08a22.58 22.58 0 0 0 6.93 16.25l40.91-41.23z"
         id="path98"
         style="fill:#ffffff" />
      <path
         d="M188.41 66.12l-35.68-27.78-40.91 41.23A22.53 22.53 0 0 0 127.57 86h49.09c12.47 0 17.76-8.94 11.75-19.88z"
         fill="url(#Gradiente_sem_nome_5)"
         id="path100"
         style="fill:#ffffff" />
      <circle
         class="cls-6"
         cx="173.83"
         cy="170.05"
         r="18.25"
         id="circle102"
         style="fill:#ffffff" />
      <path
         class="cls-6"
         d="M129.21 103.25h49.07c12.47 0 17.76 8.94 11.76 19.87l-36.28 28.4-40.91-41.23a22.62 22.62 0 0 1 16.36-7.04z"
         id="path104"
         style="fill:#ffffff" />
      <path
         d="M153.76 151.52l-27.35 35.24c-10.93 6-19.87.71-19.87-11.76v-49.07a22.59 22.59 0 0 1 6.31-15.64z"
         fill="url(#Gradiente_sem_nome_27)"
         id="path106"
         style="fill:#ffffff" />
      <path
         class="cls-8"
         d="M2.08 18.49A18.26 18.26 0 1 0 20.34.23 18.26 18.26 0 0 0 2.08 18.49z"
         id="path108"
         style="fill:#ffffff" />
      <path
         d="M87.63 63.32V14.24c0-12.48-8.95-17.77-19.88-11.76l-29 36.88 41.62 40.5a22.57 22.57 0 0 0 7.26-16.54z"
         fill="url(#Gradiente_sem_nome_23)"
         id="path110"
         style="fill:#ffffff" />
      <path
         class="cls-8"
         d="M38.77 39.36L4.12 66.12C-1.89 77.06 3.4 86 15.88 86H65a22.57 22.57 0 0 0 15.44-6.14z"
         id="path112"
         style="fill:#ffffff" />
      <path
         class="cls-1"
         d="M616.33 132.46h28v-28h18.58v28h28V151h-28v28h-18.58v-28h-28z"
         id="path114"
         style="fill:#ffffff" />
    </g>
  </g>
  <path
     style="fill:#ffffff;stroke-width:0.558545"
     d="m 135.16785,85.356236 c 0,-0.375869 1.27703,-1.480184 2.53704,-2.193927 0.60143,-0.34068 0.96783,-0.754146 0.81423,-0.918813 -0.40383,-0.432935 1.72155,-2.650854 2.54026,-2.650854 0.38033,0 0.84228,-0.392949 1.02658,-0.873219 0.1843,-0.480271 0.59444,-0.712934 0.91142,-0.517029 0.31698,0.195905 0.54033,0.148999 0.49634,-0.104234 -0.20834,-1.199348 0.11095,-1.886474 0.70577,-1.518852 0.4476,0.276634 0.53359,0.09147 0.27294,-0.58777 -0.28183,-0.734434 -0.16332,-0.908282 0.45692,-0.670273 0.4606,0.176748 0.81071,0.141897 0.77801,-0.07745 -0.15977,-1.071921 0.12591,-1.828301 0.58369,-1.545381 0.28096,0.173644 0.59514,0.116562 0.69818,-0.126849 0.10303,-0.24341 1.00717,-1.018231 2.00918,-1.721824 1.00201,-0.703593 1.71959,-1.448549 1.59462,-1.655459 -0.12497,-0.206909 0.12342,-0.70029 0.55198,-1.096401 0.42855,-0.396111 0.79512,-0.521784 0.81459,-0.279273 0.0195,0.242512 0.27244,-0.150866 0.56215,-0.874173 0.3738,-0.933283 0.80453,-1.208501 1.48357,-0.947933 0.52625,0.201944 0.78482,0.195166 0.57459,-0.01506 -0.54324,-0.543247 0.64321,-2.567812 1.27573,-2.176895 0.29606,0.182973 0.36408,-0.09313 0.15633,-0.634528 -0.24953,-0.650273 -0.15768,-0.828595 0.28567,-0.55459 0.35941,0.222127 0.65346,0.122853 0.65346,-0.220607 0,-0.34346 0.29018,-0.445131 0.64485,-0.225936 0.3694,0.228301 0.49431,0.154975 0.29244,-0.171662 -0.19382,-0.313608 0.1183,-0.99617 0.69359,-1.516806 0.75786,-0.68585 1.10924,-0.756859 1.27561,-0.257774 0.12628,0.378859 0.55093,-0.0869 0.94366,-1.03503 0.42546,-1.027159 1.41075,-2.01245 2.43791,-2.437913 0.94812,-0.392726 1.43662,-0.809797 1.08554,-0.926824 -0.46756,-0.155852 -0.45593,-0.410239 0.0435,-0.950877 0.375,-0.405955 0.8708,-0.623685 1.10178,-0.483843 0.23097,0.139841 0.67786,-0.424089 0.99308,-1.253179 0.31522,-0.82909 0.72975,-1.350811 0.92118,-1.159381 0.19143,0.191429 0.65523,-0.07204 1.03068,-0.585496 0.61275,-0.837981 1.06154,-0.632045 4.38395,2.011682 2.03573,1.619877 3.70132,3.166091 3.70132,3.436031 0,0.269941 -0.49713,0.75686 -1.10474,1.082044 -1.79855,0.962554 -3.71832,3.131569 -3.45935,3.90848 0.14192,0.425777 -0.0182,0.561982 -0.39035,0.331995 -0.37253,-0.230237 -0.63101,-0.0088 -0.63101,0.540556 0,0.611512 -0.29718,0.816498 -0.86682,0.597906 -0.49707,-0.190741 -0.72126,-0.0971 -0.52558,0.219514 0.18768,0.303681 -0.0654,0.552147 -0.5625,0.552147 -0.49706,0 -0.78962,0.188509 -0.65014,0.418909 0.33061,0.546087 -1.08195,1.851909 -1.52453,1.409333 -0.18633,-0.186334 -0.33878,-0.04555 -0.33878,0.312847 0,0.655875 -1.98025,2.913356 -2.32727,2.653088 -0.1024,-0.0768 -0.62604,0.321163 -1.16364,0.884363 -0.5376,0.563199 -0.821,1.023999 -0.62979,1.023999 0.19122,0 0.0371,0.37425 -0.34256,0.831667 -0.37962,0.457417 -0.95192,0.669927 -1.27178,0.472245 -0.33899,-0.209509 -0.41431,-0.08881 -0.18058,0.289367 0.22425,0.362841 0.0175,0.795933 -0.46904,0.982645 -0.47851,0.183619 -0.73095,0.558862 -0.56098,0.833872 0.28012,0.453253 -0.50244,0.735066 -1.57217,0.566161 -0.2304,-0.03638 -0.35608,0.248038 -0.27928,0.632038 0.0768,0.383999 -0.23738,0.614399 -0.69818,0.511999 -0.4608,-0.1024 -0.66127,-0.0096 -0.4455,0.20613 0.4582,0.458198 -1.15018,2.214231 -2.02805,2.214231 -0.32914,0 -0.59844,0.251345 -0.59844,0.558545 0,0.665081 -1.96526,2.700651 -3.42788,3.550533 -0.78708,0.457339 -0.83643,0.613541 -0.20266,0.641361 0.5169,0.02269 0.30296,0.347627 -0.55855,0.848325 -1.02296,0.594533 -3.15133,0.796906 -7.95926,0.756794 -3.6096,-0.03011 -6.56291,-0.170825 -6.56291,-0.312691 z"
     id="path260" />
  <path
     style="fill:#ffffff;stroke-width:0.558545"
     d="m 110.51227,77.55526 c -2.00388,-2.162982 -4.1179,-6.55692 -4.87782,-10.138461 -0.41327,-1.947724 -0.62802,-11.791652 -0.62802,-28.787347 0,-28.168818 0.21158,-30.4605436 3.17039,-34.3397435 1.71586,-2.2496091 5.23203,-3.98108968 8.11919,-3.99816931 1.14048,-0.006747 3.42555,0.49356631 5.07795,1.11180671 2.94552,1.1020619 3.26935,1.4640848 16.53688,18.4875461 7.44288,9.54991 13.6345,17.652649 13.75915,18.006087 0.12465,0.353439 -8.75275,9.779602 -19.72756,20.947028 l -19.95419,20.304418 z"
     id="path262" />
  <path
     style="fill:#ffffff;stroke-width:0.558545"
     d="m 123.48743,85.330576 c -1.39685,-0.263261 -3.3854,-1.828121 -2.32309,-1.828121 0.62882,0 2.86276,-2.023165 2.79073,-2.527415 -0.023,-0.16128 0.0828,-0.601134 0.23517,-0.977453 0.21813,-0.538673 0.28645,-0.538286 0.32117,0.0018 0.0242,0.377321 1.48386,-0.753733 3.24358,-2.513452 1.75972,-1.75972 3.07928,-3.296371 2.93236,-3.41478 -0.14692,-0.118409 0.31455,-0.430465 1.02548,-0.693457 0.71094,-0.262992 1.15399,-0.702468 0.98455,-0.976614 -0.16943,-0.274146 0.42589,-0.802454 1.32292,-1.174018 0.93609,-0.387742 1.51453,-0.97901 1.35767,-1.38778 -0.15327,-0.399439 0.25583,-0.850578 0.93158,-1.027291 0.66675,-0.17436 1.04033,-0.581332 0.83645,-0.911222 -0.20264,-0.327877 -0.0394,-0.598226 0.36271,-0.600775 0.75532,-0.0048 6.14687,-5.637863 6.21619,-6.494667 0.0215,-0.265379 1.05823,-1.217151 2.3039,-2.115048 2.80347,-2.020803 8.1569,-7.645941 7.81031,-8.206739 -0.14052,-0.227368 0.22762,-0.566733 0.8181,-0.754144 0.59049,-0.187412 1.21461,-0.708198 1.38695,-1.157303 0.17234,-0.449105 0.57257,-0.816555 0.88941,-0.816555 0.58045,0 2.81026,-1.994312 2.81026,-2.513452 0,-0.1536 0.14941,-0.310499 0.33203,-0.348665 0.40579,-0.08481 8.04614,5.683025 8.04614,6.07418 0,0.153448 -1.25021,1.413137 -2.77825,2.799311 -1.52803,1.386174 -2.64425,2.73712 -2.48049,3.002102 0.16377,0.264983 0.0464,0.481786 -0.26089,0.481786 -0.30726,0 -1.68413,1.109533 -3.0597,2.465629 -1.37557,1.356095 -2.64707,2.319585 -2.82557,2.141088 -0.1785,-0.178496 -0.32454,0.07743 -0.32454,0.56873 0,0.491298 -0.46245,1.040044 -1.02766,1.219436 -0.56521,0.179391 -1.35949,0.946199 -1.76507,1.704018 -0.40557,0.757818 -1.19985,1.524627 -1.76506,1.704018 -0.56521,0.179392 -1.02766,0.54124 -1.02766,0.804108 0,0.586512 -2.56336,3.168504 -4.94022,4.976133 -0.96927,0.737146 -1.76666,1.616854 -1.77197,1.954907 -0.0118,0.750063 -2.05232,2.715295 -3.75497,3.616384 -0.68814,0.364184 -1.20221,0.843156 -1.14238,1.064384 0.14363,0.531057 -4.19544,4.900328 -5.62766,5.666829 -1.09099,0.583879 -7.37262,0.704786 -10.08248,0.194065 z"
     id="path264" />
  <path
     style="fill:#ffffff;stroke-width:0.558545"
     d="m 154.71692,85.181754 c 0,-0.322387 0.6355,-0.875709 1.41222,-1.229605 0.87921,-0.400597 1.17539,-0.789809 0.78474,-1.031244 -0.37331,-0.230721 -0.0555,-0.531362 0.78474,-0.742238 0.77672,-0.194944 1.5642,-0.833329 1.74997,-1.418635 0.18577,-0.585306 0.72114,-1.211309 1.18972,-1.391119 0.46858,-0.17981 0.69552,-0.580047 0.50432,-0.889416 -0.1912,-0.30937 -0.0815,-0.593908 0.24387,-0.632308 0.32533,-0.0384 0.88036,-0.101236 1.2334,-0.139636 0.35304,-0.0384 0.8027,-0.528272 0.99926,-1.088604 0.19655,-0.560332 0.5989,-1.063022 0.89411,-1.11709 0.2952,-0.05407 0.5031,-0.404817 0.462,-0.779444 -0.0411,-0.374628 0.43196,-0.84196 1.05125,-1.038516 0.9094,-0.288632 0.9775,-0.462388 0.35401,-0.90331 -0.57068,-0.403576 -0.44408,-0.47406 0.48552,-0.270299 0.69162,0.151599 1.11664,0.04773 0.94449,-0.230821 -0.17216,-0.27855 0.071,-0.506455 0.54024,-0.506455 0.57387,0 0.73841,-0.320049 0.50252,-0.977454 -0.19291,-0.537599 -0.16378,-0.809593 0.0647,-0.60443 0.54526,0.489555 2.55524,-1.245512 2.55524,-2.205753 0,-0.410657 0.25134,-0.59131 0.55854,-0.40145 0.3072,0.18986 0.55855,0.07902 0.55855,-0.246309 0,-0.612043 1.99486,-2.825688 2.54641,-2.825688 0.17173,0 0.13144,0.314182 -0.0895,0.698182 -0.23344,0.40564 -0.18874,0.503154 0.10667,0.232727 0.27965,-0.256 0.51988,-0.758691 0.53384,-1.11709 0.014,-0.3584 0.3191,-0.591815 0.67808,-0.5187 0.40234,0.08195 0.51317,-0.239413 0.28895,-0.837817 -0.31508,-0.840856 -0.24066,-0.870676 0.55615,-0.22285 0.80597,0.655276 0.89164,0.601177 0.69174,-0.436821 -0.16775,-0.871041 0.0231,-1.14301 0.72068,-1.027176 0.52186,0.08665 0.88599,-0.156633 0.80919,-0.540632 -0.24143,-1.207172 0.57849,-0.770195 4.92245,2.623405 3.71123,2.899302 4.35107,3.673185 5.26847,6.372107 0.86319,2.539488 0.91874,3.223186 0.32044,3.944094 -0.39807,0.479643 -0.95285,0.730491 -1.23286,0.55744 -0.28,-0.173052 -0.4731,-0.107448 -0.42911,0.145786 0.20539,1.182323 -0.13304,1.726259 -1.02976,1.655091 -0.63842,-0.05067 -0.92124,0.258362 -0.81538,0.890958 0.11772,0.703483 -0.0942,0.870191 -0.77439,0.609176 -0.64895,-0.249022 -0.85642,-0.119196 -0.67574,0.422842 0.28788,0.863649 -0.78787,2.188534 -1.77701,2.188534 -0.34727,0 -0.47606,0.251346 -0.2862,0.558545 0.18986,0.3072 -0.0466,0.558545 -0.52558,0.558545 -0.47893,0 -0.87078,0.403909 -0.87078,0.897576 0,0.602745 -0.30115,0.782013 -0.91682,0.545758 -0.80129,-0.307483 -0.81889,-0.231451 -0.13964,0.603364 0.69322,0.851983 0.65833,0.91052 -0.32288,0.54181 -0.60504,-0.227353 -0.9214,-0.234703 -0.70303,-0.01633 0.21837,0.218371 0.13122,0.717333 -0.19367,1.108804 -0.766,0.922967 -24.53412,1.148206 -24.53412,0.232498 z"
     id="path266" />
  <path
     style="fill:#ffffff;stroke-width:0.558545"
     d=""
     id="path268" />
  <path
     style="fill:#ffffff;stroke-width:0.558545"
     d="m 116.09023,82.40643 c -1.4303,-0.89834 -2.77607,-1.917349 -2.99059,-2.264462 -0.44057,-0.712847 5.28019,-6.778824 5.98325,-6.344311 0.24514,0.151505 0.44571,-0.08303 0.44571,-0.521195 0,-0.92521 5.85609,-7.088897 6.73512,-7.088897 0.32554,0 0.43655,-0.251345 0.24669,-0.558545 -0.18986,-0.307199 0.0615,-0.558545 0.55854,-0.558545 0.54779,0 0.74468,-0.257383 0.49989,-0.653463 -0.27664,-0.447603 -0.0915,-0.533586 0.58777,-0.272938 0.73696,0.282799 0.90844,0.163731 0.6677,-0.463626 -0.17816,-0.464284 -0.13325,-0.844152 0.0998,-0.844152 0.23305,0 1.53467,-1.005381 2.89248,-2.234179 1.3578,-1.228799 2.28038,-2.23418 2.05016,-2.23418 -0.23021,0 -0.0945,-0.350636 0.30163,-0.779192 0.39611,-0.428556 0.92563,-0.654612 1.17671,-0.502347 0.25107,0.152265 0.59383,-0.248306 0.76168,-0.89016 0.16785,-0.641853 0.49805,-1.047806 0.73377,-0.902118 0.23573,0.145689 1.02214,-0.601317 1.74756,-1.660012 0.72543,-1.058695 1.87781,-2.223984 2.56084,-2.589531 0.68303,-0.365546 1.1276,-0.849517 0.98794,-1.075492 -0.13966,-0.225975 0.27123,-0.548194 0.91308,-0.716042 0.75068,-0.196307 1.01464,-0.551714 0.73991,-0.996237 -0.29517,-0.47759 -0.14878,-0.584257 0.4739,-0.345312 0.61801,0.237152 0.808,0.103393 0.6049,-0.425873 -0.17791,-0.46363 0.33506,-1.099842 1.28517,-1.593932 0.8697,-0.452273 2.33448,-1.828173 3.25506,-3.057556 0.92058,-1.229383 1.84503,-2.129407 2.05433,-2.000053 0.2093,0.129353 0.54214,-0.273965 0.73965,-0.896263 0.34481,-1.086389 0.45207,-1.063955 2.6933,0.563266 5.11691,3.715076 5.03657,3.62367 4.33577,4.933116 -0.35448,0.662363 -0.86331,1.204296 -1.13072,1.204296 -0.45871,0 -12.86307,12.207985 -16.53342,16.271685 -0.93443,1.034563 -2.31682,2.421102 -3.072,3.081198 -0.75518,0.660096 -3.57633,3.487729 -6.26923,6.283629 -2.6929,2.795901 -5.15835,5.083455 -5.47878,5.083455 -0.32042,0 -0.45066,0.213464 -0.28942,0.474364 0.16125,0.260901 -0.29885,0.791205 -1.02243,1.178455 -0.72358,0.387249 -1.58932,1.304838 -1.92387,2.039087 -0.33454,0.734249 -0.96378,1.334998 -1.3983,1.334998 -0.43452,0 -0.93471,0.377018 -1.11153,0.837817 -0.48212,1.256379 -2.01782,1.001028 -4.91202,-0.816753 z"
     id="path270" />
  <path
     style="fill:#ffffff;stroke-width:0.558545"
     d="m 116.01811,81.846684 c -2.21747,-1.406921 -2.57894,-1.862198 -2.12232,-2.673072 0.30269,-0.537533 3.83034,-4.22255 7.83921,-8.188926 4.00887,-3.966376 7.28886,-7.246512 7.28886,-7.28919 0,-0.14895 6.1682,-6.444649 6.31414,-6.444649 0.22135,0 9.88366,-9.576449 9.88366,-9.795841 0,-0.104421 1.77066,-1.922337 3.93481,-4.039814 l 3.93481,-3.849957 2.90736,2.165291 c 1.59906,1.190911 2.97374,2.353125 3.05485,2.5827 0.23916,0.676916 -38.26341,38.89481 -39.36061,39.069577 -0.55115,0.08779 -2.2048,-0.603462 -3.67477,-1.536119 z"
     id="path272" />
</svg>
